<svg version="1.1" id="Layer_1" xmlns="http://www.w3.org/2000/svg" xmlns:xlink="http://www.w3.org/1999/xlink" x="0px" y="0px"
	 width="100%" viewBox="0 0 2297 953" enable-background="new 0 0 2297 953" xml:space="preserve">
<path fill="#211D1E" opacity="1.000000" stroke="none" 
	d="
M1568.068726,666.000000 
	C1568.068726,747.462097 1568.068726,828.424133 1568.068726,909.654663 
	C1535.467773,909.654663 1503.202393,909.654663 1470.301270,909.654663 
	C1470.301270,884.237854 1470.301270,858.736938 1470.301270,832.299194 
	C1463.569458,841.011169 1457.821533,849.071960 1451.442871,856.597900 
	C1422.223511,891.072510 1385.200317,912.424866 1340.721313,919.891052 
	C1264.283325,932.721741 1195.802124,914.457397 1135.867310,865.176208 
	C1102.693604,837.899048 1078.711060,803.611206 1061.176270,764.678162 
	C1042.381348,722.947144 1032.770508,678.990234 1029.802002,633.428345 
	C1026.244019,578.818604 1030.364624,524.938232 1045.200195,472.139465 
	C1056.172363,433.090363 1072.205444,396.368500 1097.606079,364.298462 
	C1121.416626,334.235748 1151.119995,311.668030 1185.941162,295.795990 
	C1224.932739,278.022980 1266.037598,271.352386 1308.558594,274.204468 
	C1370.855591,278.383026 1421.025513,305.984863 1459.843750,354.633209 
	C1460.465942,355.412964 1461.053955,356.220001 1461.680054,356.996521 
	C1461.872070,357.234650 1462.137695,357.413513 1462.884766,358.077179 
	C1462.884766,255.627243 1462.884766,153.639053 1462.884766,51.291317 
	C1498.104004,51.291317 1532.816895,51.291317 1568.068726,51.291317 
	C1568.068726,255.993378 1568.068726,460.746704 1568.068726,666.000000 
M1471.964111,611.494751 
	C1471.854004,576.621643 1469.698853,541.964600 1462.049316,507.790405 
	C1454.076782,472.173035 1440.613892,439.427246 1415.317505,412.216919 
	C1387.512695,382.308533 1354.049805,364.234711 1312.937988,361.411102 
	C1273.718750,358.717438 1238.489136,369.037201 1207.981567,394.177582 
	C1179.290527,417.821198 1161.151978,448.274017 1151.068726,483.752045 
	C1144.221802,507.843323 1140.342407,532.447449 1138.576660,557.428589 
	C1135.450317,601.658264 1136.476929,645.618713 1145.983887,689.138489 
	C1154.358521,727.474121 1170.047241,761.930664 1198.313721,789.950256 
	C1221.053345,812.491333 1247.184448,828.852417 1279.133545,834.517151 
	C1317.057129,841.241089 1352.877686,835.289185 1385.374634,814.317688 
	C1420.998047,791.328613 1444.477661,758.843323 1457.122192,718.417175 
	C1467.913696,683.915649 1471.407959,648.416077 1471.964111,611.494751 
z"/>
<path fill="#211D1E" opacity="1.000000" stroke="none" 
	d="
M572.692017,709.000183 
	C572.691956,776.126282 572.691956,842.752319 572.691956,909.650452 
	C537.346130,909.650452 502.453003,909.650452 467.081482,909.650452 
	C467.081482,907.523438 467.081512,905.570618 467.081512,903.617859 
	C467.081451,775.455322 467.068085,647.292786 467.093567,519.130249 
	C467.098206,495.907471 465.458221,472.905640 459.327148,450.366058 
	C447.116882,405.477722 418.330872,377.605988 372.897766,368.281494 
	C321.238281,357.679138 273.695282,368.113953 231.321152,399.922363 
	C203.745255,420.622406 187.888031,448.821136 180.014740,481.967834 
	C172.920151,511.836212 171.213806,542.224487 171.193878,572.753784 
	C171.122009,682.916870 171.165497,793.080017 171.165436,903.243103 
	C171.165436,905.238647 171.165436,907.234253 171.165436,909.576477 
	C136.108490,909.576477 101.228790,909.576477 66.101425,909.576477 
	C66.101425,623.454224 66.101425,337.401917 66.101425,51.140285 
	C101.056946,51.140285 135.817093,51.140285 171.159531,51.140285 
	C171.159531,153.377930 171.159531,255.536255 171.159531,359.125763 
	C174.194244,355.785736 176.249069,353.479767 178.350891,351.217468 
	C213.231674,313.673920 255.219757,288.538422 305.781738,278.537292 
	C337.471100,272.269165 369.322815,272.258545 401.245758,276.656708 
	C430.379456,280.670593 457.918335,289.417236 483.490662,304.113770 
	C525.018555,327.980164 550.920166,363.329437 562.053406,409.863922 
	C570.647888,445.786987 572.535583,482.314880 572.641479,519.002380 
	C572.823792,582.167847 572.691956,645.334167 572.692017,709.000183 
z"/>
<path fill="#221E1F" opacity="1.000000" stroke="none" 
	d="
M2173.394043,318.604675 
	C2202.599121,341.138916 2218.631104,371.660095 2228.981934,405.773621 
	C2237.746582,434.660980 2238.944824,464.514282 2239.042969,494.311310 
	C2239.495605,631.633850 2239.509521,768.957764 2239.674805,906.281189 
	C2239.676025,907.262756 2239.594482,908.244507 2239.536621,909.567322 
	C2204.475586,909.567322 2169.589844,909.567322 2134.075684,909.567322 
	C2134.075684,907.695129 2134.076416,905.762146 2134.075928,903.829163 
	C2134.050049,777.837097 2134.101074,651.844971 2133.934570,525.853088 
	C2133.900391,500.016144 2132.400391,474.259674 2126.143555,449.000061 
	C2117.139893,412.651459 2093.951660,388.919708 2060.021484,375.057861 
	C2033.911865,364.390991 2006.692139,363.245605 1978.988647,366.776978 
	C1944.241333,371.206146 1913.944458,385.304596 1887.792114,408.328186 
	C1868.637451,425.191376 1858.172729,447.377899 1851.200684,471.348694 
	C1843.908081,496.421326 1840.256592,522.207642 1840.139038,548.227051 
	C1839.604248,666.547913 1839.565186,784.870972 1839.348511,903.193237 
	C1839.344971,905.186279 1839.348145,907.179260 1839.348145,909.547729 
	C1804.262573,909.547729 1769.392578,909.547729 1734.244995,909.547729 
	C1734.244995,702.515503 1734.244995,495.442566 1734.244995,288.015808 
	C1765.578735,288.015808 1796.960327,288.015808 1828.904053,288.015808 
	C1828.904053,316.805176 1828.904053,345.653778 1828.904053,374.993042 
	C1836.513428,365.527435 1843.325317,356.344788 1850.861816,347.801331 
	C1883.992432,310.244446 1925.450928,286.979095 1974.641968,278.325287 
	C2031.416992,268.337311 2086.827881,272.856995 2139.402832,298.128937 
	C2151.167480,303.784088 2161.909180,311.567657 2173.394043,318.604675 
z"/>
<path fill="#221E1F" opacity="1.000000" stroke="none" 
	d="
M802.027832,663.000000 
	C801.998657,558.854553 802.103638,455.208649 801.718384,351.564514 
	C801.682617,341.938904 799.671387,331.943756 796.595520,322.785828 
	C790.432434,304.436523 775.270386,295.846069 757.629944,291.259613 
	C750.442444,289.390869 742.908569,288.854187 735.221069,287.663208 
	C735.221069,285.943146 735.221069,283.830505 735.221069,281.357056 
	C801.393616,281.357056 867.753052,281.357056 934.236206,281.357056 
	C934.236206,283.508911 934.236206,285.598541 934.236206,287.015625 
	C924.548889,289.104340 914.901672,290.258881 905.896362,293.308899 
	C883.623962,300.852325 871.063843,316.895935 868.112244,340.215515 
	C867.299500,346.636841 866.984253,353.161560 866.981750,359.639069 
	C866.921509,516.773865 866.951477,673.908630 866.907104,831.043457 
	C866.903015,845.687012 867.952209,860.163330 875.792053,872.956665 
	C887.276428,891.697571 905.269104,900.046570 926.303467,902.986206 
	C928.604309,903.307800 930.944824,903.343872 933.265747,903.527954 
	C933.415588,903.539795 933.554810,903.685608 934.064270,903.980896 
	C934.064270,905.672974 934.064270,907.585754 934.064270,909.882202 
	C868.044922,909.882202 801.831970,909.882202 735.292114,909.882202 
	C735.292114,908.042542 735.292114,905.981934 735.292114,904.524963 
	C743.850708,902.829224 752.548645,902.006042 760.638184,899.338074 
	C787.342712,890.530945 801.697876,870.104797 801.842468,840.463318 
	C802.130188,781.476624 801.990845,722.487915 802.027832,663.000000 
z"/>
</svg>